<?xml version="1.0" encoding="UTF-8" standalone="no"?>
<!-- Created with Inkscape (http://www.inkscape.org/) -->

<svg
   width="218"
   height="35"
   viewBox="0 0 218 35.000001"
   version="1.1"
   id="svg5"
   inkscape:version="1.1.2 (b8e25be833, 2022-02-05)"
   sodipodi:docname="logo.svg"
   xmlns:inkscape="http://www.inkscape.org/namespaces/inkscape"
   xmlns:sodipodi="http://sodipodi.sourceforge.net/DTD/sodipodi-0.dtd"
   xmlns="http://www.w3.org/2000/svg"
   xmlns:svg="http://www.w3.org/2000/svg">
  <sodipodi:namedview
     id="namedview7"
     pagecolor="#505050"
     bordercolor="#eeeeee"
     borderopacity="1"
     inkscape:pageshadow="0"
     inkscape:pageopacity="0"
     inkscape:pagecheckerboard="0"
     inkscape:document-units="px"
     showgrid="false"
     inkscape:zoom="0.56927083"
     inkscape:cx="391.72919"
     inkscape:cy="539.28637"
     inkscape:window-width="1920"
     inkscape:window-height="1009"
     inkscape:window-x="-8"
     inkscape:window-y="-8"
     inkscape:window-maximized="1"
     inkscape:current-layer="text1155"
     width="479px"
     units="px" />
  <defs
     id="defs2" />
  <g
     inkscape:label="Слой 1"
     inkscape:groupmode="layer"
     id="layer1">
    <g
       aria-label=" SDMinev"
       transform="scale(1.0002814,0.99971868)"
       id="text1155"
       style="font-weight:bold;font-size:98.7729px;line-height:1.25;font-family:'agave Nerd Font';-inkscape-font-specification:'agave Nerd Font Bold';fill:#ffffff;stroke-width:2.46932">
      <path
         d="m 18.70113,20.015033 h 9.394476 v 3.770628 H 18.70113 Z m 0,-7.453568 h 9.394476 v 3.770629 H 18.70113 Z M 7.2872811,9.5800378 15.891568,18.173563 7.2872811,26.767089 4.6533158,24.136417 10.623637,18.173563 4.6533158,12.210709 Z M 3.7753273,1.3372686 q -1.6681779,0 -2.721764,1.096113 Q -2.2838381e-5,3.5294945 -2.2838381e-5,5.1078972 V 31.239229 q 0,1.578403 1.097485538381,2.674516 1.0974855,1.096113 2.6778646,1.096113 H 29.939382 q 1.58038,0 2.677865,-1.096113 1.097486,-1.096113 1.097486,-2.674516 V 5.1078972 q 0,-1.5784027 -1.097486,-2.6745156 -1.097485,-1.096113 -2.677865,-1.096113 z"
         style="fill:#ffffff;stroke-width:1.12312"
         id="path25720" />
      <path
         d="m 58.495957,32.532643 q -2.282769,0 -4.477742,-0.460368 -2.173023,-0.460367 -4.104599,-1.337258 -1.90962,-0.898812 -3.424151,-2.148381 v 0 l 2.787614,-4.95443 v 0 q 1.843775,1.512635 4.258241,2.345682 2.414471,0.811123 4.960637,0.811123 2.941262,0 4.565538,-0.986502 1.624278,-1.008424 1.624278,-2.827971 v -0.02192 q 0,-1.271491 -0.724338,-2.016847 -0.724342,-0.745357 -1.887675,-1.096113 -1.163337,-0.350756 -2.985162,-0.635746 -0.06585,-0.02192 -0.131696,-0.02192 -0.04391,0 -0.109751,-0.02192 l -0.482895,-0.06577 q -3.204655,-0.504217 -5.311827,-1.249574 -2.107171,-0.767279 -3.577803,-2.652593 -1.47063,-1.907237 -1.47063,-5.3928757 v -0.021923 q 0,-3.0910385 1.38283,-5.2832644 1.38283,-2.1922257 4.016797,-3.3321831 Q 56.037587,9.045967e-6 59.76904,9.045967e-6 q 1.712079,0 3.490002,0.394600654033 1.799875,0.39460066 3.511952,1.1399574 1.712079,0.7453568 3.24856,1.7976253 v 0 l -2.546167,5.0859638 v 0 Q 65.629613,7.1466654 63.610236,6.445153 61.612815,5.743641 59.76904,5.743641 q -2.765664,0 -4.280195,0.9207347 -1.514531,0.8988125 -1.514531,2.5429821 v 0.021923 q 0,1.3811022 0.790189,2.1922262 0.790193,0.789201 1.953526,1.161879 1.163336,0.372678 3.270509,0.789201 0.0878,0.02192 0.175596,0.04385 0.0878,0 0.175598,0.02192 0.131697,0.02192 0.241447,0.06577 0.131697,0.02192 0.263397,0.04385 3.029058,0.591901 5.048434,1.446869 2.041322,0.833046 3.402201,2.71836 1.360884,1.863392 1.360884,5.107886 v 0.04385 q 0,3.047193 -1.426729,5.217497 -1.426735,2.170304 -4.170449,3.310261 -2.721764,1.139958 -6.56296,1.139958 z"
         style="font-family:Bahnschrift;-inkscape-font-specification:'Bahnschrift Bold';fill:#ffffff;stroke-width:1.12312"
         id="path25722" />
      <path
         d="m 78.733587,26.416333 h 7.660445 q 2.963212,0 4.58749,-1.424947 1.624281,-1.424947 1.624281,-4.033696 v -9.382727 q 0,-2.6087485 -1.624281,-4.0336952 -1.624278,-1.4249467 -4.58749,-1.4249467 H 78.733587 V 0.32884475 h 7.52875 q 3.994847,0 6.804411,1.33725775 2.83151,1.3372578 4.302141,3.902162 1.470631,2.5649043 1.470631,6.1820775 v 9.03197 q 0,3.441795 -1.426731,6.006699 -1.40478,2.564904 -4.236295,3.989851 -2.831514,1.424947 -6.936108,1.424947 H 78.733587 Z M 75.704524,0.32884475 h 6.014219 V 32.203809 h -6.014219 z"
         style="font-family:Bahnschrift;-inkscape-font-specification:'Bahnschrift Bold';fill:#ffffff;stroke-width:1.12312"
         id="path25724" />
      <path
         d="m 124.84993,0.32884475 h 7.92385 V 32.203809 H 127.3083 V 7.4535787 l 0.2195,1.4030249 -6.10203,19.7957994 h -5.31182 l -6.10202,-19.3573543 0.21949,-1.84147 V 32.203809 h -5.46547 V 0.32884475 h 7.92384 l 6.08007,21.48381325 z"
         style="font-family:Bahnschrift;-inkscape-font-specification:'Bahnschrift Bold';fill:#ffffff;stroke-width:1.12312"
         id="path25726" />
      <path
         d="m 139.02944,0.32884475 h 6.01422 V 6.3355438 h -6.01422 z m 0,9.11965945 h 6.01422 V 32.203809 h -6.01422 z"
         style="font-family:Bahnschrift;-inkscape-font-specification:'Bahnschrift Bold';fill:#ffffff;stroke-width:1.12312"
         id="path25728" />
      <path
         d="m 150.64084,9.4485042 h 6.01422 V 32.203809 h -6.01422 z m 13.16983,8.9662038 q 0,-1.666091 -0.96578,-2.586826 -0.94385,-0.920735 -2.69982,-0.920735 -1.66818,0 -2.59006,0.942657 -0.89995,0.920735 -0.89995,2.608749 l -0.46094,-5.04212 q 1.03164,-2.148381 2.45837,-3.222572 1.44868,-1.0741905 3.6217,-1.0741905 3.59975,0 5.57522,2.4333705 1.97548,2.411449 1.97548,6.839745 v 13.811023 h -6.01422 z"
         style="font-family:Bahnschrift;-inkscape-font-specification:'Bahnschrift Bold';fill:#ffffff;stroke-width:1.12312"
         id="path25730" />
      <path
         d="m 185.51893,32.532643 q -3.29245,0 -5.64107,-1.183802 -2.32667,-1.205724 -3.55586,-3.485639 -1.22918,-2.301837 -1.22918,-5.52441 v -2.564904 q 0,-3.376027 1.16333,-5.765554 1.18529,-2.389526 3.42416,-3.639095 2.26082,-1.2495685 5.44353,-1.2495685 2.98516,0 5.11429,1.4907135 2.12912,1.490714 3.2266,4.340608 1.11943,2.827971 1.11943,6.839744 v 1.490714 h -15.58429 v -4.055618 h 10.09687 l -0.0659,-0.526135 q -0.24145,-1.973003 -1.25114,-3.047194 -0.98773,-1.07419 -2.65591,-1.07419 -2.17303,0 -3.38026,1.293413 -1.18528,1.293413 -1.18528,3.661018 v 2.893738 q 0,2.323759 1.29503,3.59525 1.31699,1.271491 3.6656,1.271491 1.20724,0 2.39253,-0.416523 1.18528,-0.438445 2.15107,-1.227647 v 0 l 3.92899,3.48564 v 0 q -1.77792,1.622247 -3.99485,2.52106 -2.21692,0.87689 -4.47774,0.87689 z"
         style="font-family:Bahnschrift;-inkscape-font-specification:'Bahnschrift Bold';fill:#ffffff;stroke-width:1.12312"
         id="path25732" />
      <path
         d="m 211.94637,9.4485042 h 5.99228 l -8.56039,22.7553048 h -4.25824 L 196.55963,9.4485042 h 5.99227 l 4.69724,14.2713908 z"
         style="font-family:Bahnschrift;-inkscape-font-specification:'Bahnschrift Bold';fill:#ffffff;stroke-width:1.12312"
         id="path25734" />
    </g>
  </g>
</svg>
