<svg xmlns="http://www.w3.org/2000/svg" version="1.1" xmlns:xlink="http://www.w3.org/1999/xlink" xmlns:svgjs="http://svgjs.dev/svgjs" width="1440" height="560" preserveAspectRatio="none" viewBox="0 0 1440 560"><g mask="url(&quot;#SvgjsMask1010&quot;)" fill="none"><path d="M-64.61 359.6L-64.61 359.6" stroke="rgba(249, 221, 221, 1)" stroke-width="1.5"></path><path d="M-64.61 359.6L70.67 345.18" stroke="rgba(249, 221, 221, 1)" stroke-width="1.5"></path><path d="M-106.54 501.05L-106.54 501.05" stroke="rgba(249, 221, 221, 1)" stroke-width="1.5"></path><path d="M-106.54 501.05L-105.15 642.94" stroke="rgba(249, 221, 221, 1)" stroke-width="1.5"></path><path d="M-106.54 501.05L-64.61 359.6" stroke="rgba(249, 221, 221, 1)" stroke-width="1.5"></path><path d="M-106.54 501.05L98.94 556.38" stroke="rgba(249, 221, 221, 1)" stroke-width="1.5"></path><path d="M-106.54 501.05L70.67 345.18" stroke="rgba(249, 221, 221, 1)" stroke-width="1.5"></path><path d="M-106.54 501.05L81.07 696.09" stroke="rgba(249, 221, 221, 1)" stroke-width="1.5"></path><path d="M-105.15 642.94L-105.15 642.94" stroke="rgba(249, 221, 221, 1)" stroke-width="1.5"></path><path d="M-105.15 642.94L81.07 696.09" stroke="rgba(249, 221, 221, 1)" stroke-width="1.5"></path><path d="M-105.15 642.94L98.94 556.38" stroke="rgba(249, 221, 221, 1)" stroke-width="1.5"></path><path d="M-105.15 642.94L-64.61 359.6" stroke="rgba(249, 221, 221, 1)" stroke-width="1.5"></path><path d="M70.67 345.18L70.67 345.18" stroke="rgba(249, 221, 221, 1)" stroke-width="1.5"></path><path d="M70.67 345.18L225.92 395.4" stroke="rgba(249, 221, 221, 1)" stroke-width="1.5"></path><path d="M70.67 345.18L98.94 556.38" stroke="rgba(249, 221, 221, 1)" stroke-width="1.5"></path><path d="M70.67 345.18L257.91 497.93" stroke="rgba(249, 221, 221, 1)" stroke-width="1.5"></path><path d="M98.94 556.38L98.94 556.38" stroke="rgba(249, 221, 221, 1)" stroke-width="1.5"></path><path d="M98.94 556.38L81.07 696.09" stroke="rgba(249, 221, 221, 1)" stroke-width="1.5"></path><path d="M98.94 556.38L257.91 497.93" stroke="rgba(249, 221, 221, 1)" stroke-width="1.5"></path><path d="M98.94 556.38L239.91 673" stroke="rgba(249, 221, 221, 1)" stroke-width="1.5"></path><path d="M98.94 556.38L225.92 395.4" stroke="rgba(249, 221, 221, 1)" stroke-width="1.5"></path><path d="M81.07 696.09L81.07 696.09" stroke="rgba(249, 221, 221, 1)" stroke-width="1.5"></path><path d="M81.07 696.09L239.91 673" stroke="rgba(249, 221, 221, 1)" stroke-width="1.5"></path><path d="M225.92 395.4L225.92 395.4" stroke="rgba(249, 221, 221, 1)" stroke-width="1.5"></path><path d="M225.92 395.4L257.91 497.93" stroke="rgba(249, 221, 221, 1)" stroke-width="1.5"></path><path d="M225.92 395.4L387.27 401.21" stroke="rgba(249, 221, 221, 1)" stroke-width="1.5"></path><path d="M257.91 497.93L257.91 497.93" stroke="rgba(249, 221, 221, 1)" stroke-width="1.5"></path><path d="M257.91 497.93L375.02 536.88" stroke="rgba(249, 221, 221, 1)" stroke-width="1.5"></path><path d="M257.91 497.93L387.27 401.21" stroke="rgba(249, 221, 221, 1)" stroke-width="1.5"></path><path d="M239.91 673L239.91 673" stroke="rgba(249, 221, 221, 1)" stroke-width="1.5"></path><path d="M239.91 673L359.38 680.19" stroke="rgba(249, 221, 221, 1)" stroke-width="1.5"></path><path d="M239.91 673L257.91 497.93" stroke="rgba(249, 221, 221, 1)" stroke-width="1.5"></path><path d="M239.91 673L375.02 536.88" stroke="rgba(249, 221, 221, 1)" stroke-width="1.5"></path><path d="M239.91 673L225.92 395.4" stroke="rgba(249, 221, 221, 1)" stroke-width="1.5"></path><path d="M387.27 401.21L387.27 401.21" stroke="rgba(249, 221, 221, 1)" stroke-width="1.5"></path><path d="M387.27 401.21L501.68 341.6" stroke="rgba(249, 221, 221, 1)" stroke-width="1.5"></path><path d="M387.27 401.21L375.02 536.88" stroke="rgba(249, 221, 221, 1)" stroke-width="1.5"></path><path d="M387.27 401.21L539.01 506.88" stroke="rgba(249, 221, 221, 1)" stroke-width="1.5"></path><path d="M387.27 401.21L359.38 680.19" stroke="rgba(249, 221, 221, 1)" stroke-width="1.5"></path><path d="M375.02 536.88L375.02 536.88" stroke="rgba(249, 221, 221, 1)" stroke-width="1.5"></path><path d="M375.02 536.88L359.38 680.19" stroke="rgba(249, 221, 221, 1)" stroke-width="1.5"></path><path d="M375.02 536.88L539.01 506.88" stroke="rgba(249, 221, 221, 1)" stroke-width="1.5"></path><path d="M375.02 536.88L225.92 395.4" stroke="rgba(249, 221, 221, 1)" stroke-width="1.5"></path><path d="M359.38 680.19L359.38 680.19" stroke="rgba(249, 221, 221, 1)" stroke-width="1.5"></path><path d="M501.68 341.6L501.68 341.6" stroke="rgba(249, 221, 221, 1)" stroke-width="1.5"></path><path d="M501.68 341.6L539.01 506.88" stroke="rgba(249, 221, 221, 1)" stroke-width="1.5"></path><path d="M501.68 341.6L675.79 395.46" stroke="rgba(249, 221, 221, 1)" stroke-width="1.5"></path><path d="M501.68 341.6L375.02 536.88" stroke="rgba(249, 221, 221, 1)" stroke-width="1.5"></path><path d="M501.68 341.6L663.15 534.19" stroke="rgba(249, 221, 221, 1)" stroke-width="1.5"></path><path d="M501.68 341.6L225.92 395.4" stroke="rgba(249, 221, 221, 1)" stroke-width="1.5"></path><path d="M539.01 506.88L539.01 506.88" stroke="rgba(249, 221, 221, 1)" stroke-width="1.5"></path><path d="M539.01 506.88L663.15 534.19" stroke="rgba(249, 221, 221, 1)" stroke-width="1.5"></path><path d="M539.01 506.88L675.79 395.46" stroke="rgba(249, 221, 221, 1)" stroke-width="1.5"></path><path d="M539.01 506.88L674.73 701.87" stroke="rgba(249, 221, 221, 1)" stroke-width="1.5"></path><path d="M675.79 395.46L675.79 395.46" stroke="rgba(249, 221, 221, 1)" stroke-width="1.5"></path><path d="M675.79 395.46L663.15 534.19" stroke="rgba(249, 221, 221, 1)" stroke-width="1.5"></path><path d="M675.79 395.46L819.73 338.37" stroke="rgba(249, 221, 221, 1)" stroke-width="1.5"></path><path d="M675.79 395.46L789.41 542.32" stroke="rgba(249, 221, 221, 1)" stroke-width="1.5"></path><path d="M663.15 534.19L663.15 534.19" stroke="rgba(249, 221, 221, 1)" stroke-width="1.5"></path><path d="M663.15 534.19L789.41 542.32" stroke="rgba(249, 221, 221, 1)" stroke-width="1.5"></path><path d="M674.73 701.87L674.73 701.87" stroke="rgba(249, 221, 221, 1)" stroke-width="1.5"></path><path d="M674.73 701.87L809.82 676.16" stroke="rgba(249, 221, 221, 1)" stroke-width="1.5"></path><path d="M674.73 701.87L663.15 534.19" stroke="rgba(249, 221, 221, 1)" stroke-width="1.5"></path><path d="M674.73 701.87L789.41 542.32" stroke="rgba(249, 221, 221, 1)" stroke-width="1.5"></path><path d="M814.96 199.18L814.96 199.18" stroke="rgba(249, 221, 221, 1)" stroke-width="1.5"></path><path d="M814.96 199.18L819.73 338.37" stroke="rgba(249, 221, 221, 1)" stroke-width="1.5"></path><path d="M814.96 199.18L977.3 210.88" stroke="rgba(249, 221, 221, 1)" stroke-width="1.5"></path><path d="M814.96 199.18L949.6 62.84" stroke="rgba(249, 221, 221, 1)" stroke-width="1.5"></path><path d="M814.96 199.18L675.79 395.46" stroke="rgba(249, 221, 221, 1)" stroke-width="1.5"></path><path d="M814.96 199.18L1101.55 211.02" stroke="rgba(249, 221, 221, 1)" stroke-width="1.5"></path><path d="M814.96 199.18L975.25 -45.56" stroke="rgba(249, 221, 221, 1)" stroke-width="1.5"></path><path d="M819.73 338.37L819.73 338.37" stroke="rgba(249, 221, 221, 1)" stroke-width="1.5"></path><path d="M789.41 542.32L789.41 542.32" stroke="rgba(249, 221, 221, 1)" stroke-width="1.5"></path><path d="M789.41 542.32L809.82 676.16" stroke="rgba(249, 221, 221, 1)" stroke-width="1.5"></path><path d="M789.41 542.32L953.86 487.52" stroke="rgba(249, 221, 221, 1)" stroke-width="1.5"></path><path d="M809.82 676.16L809.82 676.16" stroke="rgba(249, 221, 221, 1)" stroke-width="1.5"></path><path d="M809.82 676.16L1000.75 652.02" stroke="rgba(249, 221, 221, 1)" stroke-width="1.5"></path><path d="M975.25 -45.56L975.25 -45.56" stroke="rgba(249, 221, 221, 1)" stroke-width="1.5"></path><path d="M975.25 -45.56L949.6 62.84" stroke="rgba(249, 221, 221, 1)" stroke-width="1.5"></path><path d="M975.25 -45.56L1118.56 -41.17" stroke="rgba(249, 221, 221, 1)" stroke-width="1.5"></path><path d="M975.25 -45.56L1141.86 86.59" stroke="rgba(249, 221, 221, 1)" stroke-width="1.5"></path><path d="M975.25 -45.56L977.3 210.88" stroke="rgba(249, 221, 221, 1)" stroke-width="1.5"></path><path d="M949.6 62.84L949.6 62.84" stroke="rgba(249, 221, 221, 1)" stroke-width="1.5"></path><path d="M949.6 62.84L977.3 210.88" stroke="rgba(249, 221, 221, 1)" stroke-width="1.5"></path><path d="M949.6 62.84L1141.86 86.59" stroke="rgba(249, 221, 221, 1)" stroke-width="1.5"></path><path d="M949.6 62.84L1118.56 -41.17" stroke="rgba(249, 221, 221, 1)" stroke-width="1.5"></path><path d="M949.6 62.84L1101.55 211.02" stroke="rgba(249, 221, 221, 1)" stroke-width="1.5"></path><path d="M977.3 210.88L977.3 210.88" stroke="rgba(249, 221, 221, 1)" stroke-width="1.5"></path><path d="M977.3 210.88L1101.55 211.02" stroke="rgba(249, 221, 221, 1)" stroke-width="1.5"></path><path d="M953.86 487.52L953.86 487.52" stroke="rgba(249, 221, 221, 1)" stroke-width="1.5"></path><path d="M953.86 487.52L1000.75 652.02" stroke="rgba(249, 221, 221, 1)" stroke-width="1.5"></path><path d="M953.86 487.52L1117.58 554.8" stroke="rgba(249, 221, 221, 1)" stroke-width="1.5"></path><path d="M953.86 487.52L1130.91 397.42" stroke="rgba(249, 221, 221, 1)" stroke-width="1.5"></path><path d="M953.86 487.52L819.73 338.37" stroke="rgba(249, 221, 221, 1)" stroke-width="1.5"></path><path d="M1000.75 652.02L1000.75 652.02" stroke="rgba(249, 221, 221, 1)" stroke-width="1.5"></path><path d="M1000.75 652.02L1109.19 681.78" stroke="rgba(249, 221, 221, 1)" stroke-width="1.5"></path><path d="M1000.75 652.02L1117.58 554.8" stroke="rgba(249, 221, 221, 1)" stroke-width="1.5"></path><path d="M1118.56 -41.17L1118.56 -41.17" stroke="rgba(249, 221, 221, 1)" stroke-width="1.5"></path><path d="M1118.56 -41.17L1141.86 86.59" stroke="rgba(249, 221, 221, 1)" stroke-width="1.5"></path><path d="M1118.56 -41.17L1293.03 41.47" stroke="rgba(249, 221, 221, 1)" stroke-width="1.5"></path><path d="M1118.56 -41.17L1101.55 211.02" stroke="rgba(249, 221, 221, 1)" stroke-width="1.5"></path><path d="M1141.86 86.59L1141.86 86.59" stroke="rgba(249, 221, 221, 1)" stroke-width="1.5"></path><path d="M1141.86 86.59L1101.55 211.02" stroke="rgba(249, 221, 221, 1)" stroke-width="1.5"></path><path d="M1141.86 86.59L1293.03 41.47" stroke="rgba(249, 221, 221, 1)" stroke-width="1.5"></path><path d="M1141.86 86.59L977.3 210.88" stroke="rgba(249, 221, 221, 1)" stroke-width="1.5"></path><path d="M1101.55 211.02L1101.55 211.02" stroke="rgba(249, 221, 221, 1)" stroke-width="1.5"></path><path d="M1101.55 211.02L1130.91 397.42" stroke="rgba(249, 221, 221, 1)" stroke-width="1.5"></path><path d="M1130.91 397.42L1130.91 397.42" stroke="rgba(249, 221, 221, 1)" stroke-width="1.5"></path><path d="M1130.91 397.42L1117.58 554.8" stroke="rgba(249, 221, 221, 1)" stroke-width="1.5"></path><path d="M1130.91 397.42L1258.72 554.9" stroke="rgba(249, 221, 221, 1)" stroke-width="1.5"></path><path d="M1130.91 397.42L1304.25 261.43" stroke="rgba(249, 221, 221, 1)" stroke-width="1.5"></path><path d="M1117.58 554.8L1117.58 554.8" stroke="rgba(249, 221, 221, 1)" stroke-width="1.5"></path><path d="M1117.58 554.8L1109.19 681.78" stroke="rgba(249, 221, 221, 1)" stroke-width="1.5"></path><path d="M1117.58 554.8L1258.72 554.9" stroke="rgba(249, 221, 221, 1)" stroke-width="1.5"></path><path d="M1109.19 681.78L1109.19 681.78" stroke="rgba(249, 221, 221, 1)" stroke-width="1.5"></path><path d="M1109.19 681.78L1292.89 695.6" stroke="rgba(249, 221, 221, 1)" stroke-width="1.5"></path><path d="M1109.19 681.78L1258.72 554.9" stroke="rgba(249, 221, 221, 1)" stroke-width="1.5"></path><path d="M1109.19 681.78L953.86 487.52" stroke="rgba(249, 221, 221, 1)" stroke-width="1.5"></path><path d="M1293.03 41.47L1293.03 41.47" stroke="rgba(249, 221, 221, 1)" stroke-width="1.5"></path><path d="M1293.03 41.47L1401.34 100.69" stroke="rgba(249, 221, 221, 1)" stroke-width="1.5"></path><path d="M1293.03 41.47L1423.38 -88.38" stroke="rgba(249, 221, 221, 1)" stroke-width="1.5"></path><path d="M1293.03 41.47L1388.58 207.8" stroke="rgba(249, 221, 221, 1)" stroke-width="1.5"></path><path d="M1293.03 41.47L1304.25 261.43" stroke="rgba(249, 221, 221, 1)" stroke-width="1.5"></path><path d="M1304.25 261.43L1304.25 261.43" stroke="rgba(249, 221, 221, 1)" stroke-width="1.5"></path><path d="M1304.25 261.43L1388.58 207.8" stroke="rgba(249, 221, 221, 1)" stroke-width="1.5"></path><path d="M1304.25 261.43L1449.9 365.17" stroke="rgba(249, 221, 221, 1)" stroke-width="1.5"></path><path d="M1304.25 261.43L1401.34 100.69" stroke="rgba(249, 221, 221, 1)" stroke-width="1.5"></path><path d="M1304.25 261.43L1101.55 211.02" stroke="rgba(249, 221, 221, 1)" stroke-width="1.5"></path><path d="M1258.72 554.9L1258.72 554.9" stroke="rgba(249, 221, 221, 1)" stroke-width="1.5"></path><path d="M1258.72 554.9L1292.89 695.6" stroke="rgba(249, 221, 221, 1)" stroke-width="1.5"></path><path d="M1292.89 695.6L1292.89 695.6" stroke="rgba(249, 221, 221, 1)" stroke-width="1.5"></path><path d="M1292.89 695.6L1411.54 537.65" stroke="rgba(249, 221, 221, 1)" stroke-width="1.5"></path><path d="M1292.89 695.6L1117.58 554.8" stroke="rgba(249, 221, 221, 1)" stroke-width="1.5"></path><path d="M1292.89 695.6L1000.75 652.02" stroke="rgba(249, 221, 221, 1)" stroke-width="1.5"></path><path d="M1292.89 695.6L1603.13 647.19" stroke="rgba(249, 221, 221, 1)" stroke-width="1.5"></path><path d="M1423.38 -88.38L1423.38 -88.38" stroke="rgba(249, 221, 221, 1)" stroke-width="1.5"></path><path d="M1423.38 -88.38L1401.34 100.69" stroke="rgba(249, 221, 221, 1)" stroke-width="1.5"></path><path d="M1423.38 -88.38L1599.98 62.93" stroke="rgba(249, 221, 221, 1)" stroke-width="1.5"></path><path d="M1423.38 -88.38L1388.58 207.8" stroke="rgba(249, 221, 221, 1)" stroke-width="1.5"></path><path d="M1423.38 -88.38L1118.56 -41.17" stroke="rgba(249, 221, 221, 1)" stroke-width="1.5"></path><path d="M1423.38 -88.38L1141.86 86.59" stroke="rgba(249, 221, 221, 1)" stroke-width="1.5"></path><path d="M1401.34 100.69L1401.34 100.69" stroke="rgba(249, 221, 221, 1)" stroke-width="1.5"></path><path d="M1401.34 100.69L1388.58 207.8" stroke="rgba(249, 221, 221, 1)" stroke-width="1.5"></path><path d="M1401.34 100.69L1599.98 62.93" stroke="rgba(249, 221, 221, 1)" stroke-width="1.5"></path><path d="M1401.34 100.69L1554.48 246.61" stroke="rgba(249, 221, 221, 1)" stroke-width="1.5"></path><path d="M1388.58 207.8L1388.58 207.8" stroke="rgba(249, 221, 221, 1)" stroke-width="1.5"></path><path d="M1388.58 207.8L1449.9 365.17" stroke="rgba(249, 221, 221, 1)" stroke-width="1.5"></path><path d="M1388.58 207.8L1554.48 246.61" stroke="rgba(249, 221, 221, 1)" stroke-width="1.5"></path><path d="M1449.9 365.17L1449.9 365.17" stroke="rgba(249, 221, 221, 1)" stroke-width="1.5"></path><path d="M1449.9 365.17L1595.08 362.32" stroke="rgba(249, 221, 221, 1)" stroke-width="1.5"></path><path d="M1449.9 365.17L1554.48 246.61" stroke="rgba(249, 221, 221, 1)" stroke-width="1.5"></path><path d="M1449.9 365.17L1547.34 499.65" stroke="rgba(249, 221, 221, 1)" stroke-width="1.5"></path><path d="M1449.9 365.17L1411.54 537.65" stroke="rgba(249, 221, 221, 1)" stroke-width="1.5"></path><path d="M1411.54 537.65L1411.54 537.65" stroke="rgba(249, 221, 221, 1)" stroke-width="1.5"></path><path d="M1411.54 537.65L1547.34 499.65" stroke="rgba(249, 221, 221, 1)" stroke-width="1.5"></path><path d="M1411.54 537.65L1258.72 554.9" stroke="rgba(249, 221, 221, 1)" stroke-width="1.5"></path><path d="M1599.98 62.93L1599.98 62.93" stroke="rgba(249, 221, 221, 1)" stroke-width="1.5"></path><path d="M1599.98 62.93L1554.48 246.61" stroke="rgba(249, 221, 221, 1)" stroke-width="1.5"></path><path d="M1554.48 246.61L1554.48 246.61" stroke="rgba(249, 221, 221, 1)" stroke-width="1.5"></path><path d="M1554.48 246.61L1595.08 362.32" stroke="rgba(249, 221, 221, 1)" stroke-width="1.5"></path><path d="M1554.48 246.61L1304.25 261.43" stroke="rgba(249, 221, 221, 1)" stroke-width="1.5"></path><path d="M1595.08 362.32L1595.08 362.32" stroke="rgba(249, 221, 221, 1)" stroke-width="1.5"></path><path d="M1595.08 362.32L1547.34 499.65" stroke="rgba(249, 221, 221, 1)" stroke-width="1.5"></path><path d="M1595.08 362.32L1411.54 537.65" stroke="rgba(249, 221, 221, 1)" stroke-width="1.5"></path><path d="M1595.08 362.32L1388.58 207.8" stroke="rgba(249, 221, 221, 1)" stroke-width="1.5"></path><path d="M1595.08 362.32L1603.13 647.19" stroke="rgba(249, 221, 221, 1)" stroke-width="1.5"></path><path d="M1547.34 499.65L1547.34 499.65" stroke="rgba(249, 221, 221, 1)" stroke-width="1.5"></path><path d="M1547.34 499.65L1603.13 647.19" stroke="rgba(249, 221, 221, 1)" stroke-width="1.5"></path><path d="M1603.13 647.19L1603.13 647.19" stroke="rgba(249, 221, 221, 1)" stroke-width="1.5"></path><path d="M1603.13 647.19L1411.54 537.65" stroke="rgba(249, 221, 221, 1)" stroke-width="1.5"></path><circle r="5" cx="-64.61" cy="359.6" fill="rgba(249, 221, 221, 1)"></circle><circle r="5" cx="-106.54" cy="501.05" fill="rgba(249, 221, 221, 1)"></circle><circle r="5" cx="-105.15" cy="642.94" fill="rgba(249, 221, 221, 1)"></circle><circle r="5" cx="70.67" cy="345.18" fill="rgba(249, 221, 221, 1)"></circle><circle r="5" cx="98.94" cy="556.38" fill="rgba(249, 221, 221, 1)"></circle><circle r="5" cx="81.07" cy="696.09" fill="rgba(249, 221, 221, 1)"></circle><circle r="5" cx="225.92" cy="395.4" fill="rgba(249, 221, 221, 1)"></circle><circle r="5" cx="257.91" cy="497.93" fill="rgba(249, 221, 221, 1)"></circle><circle r="5" cx="239.91" cy="673" fill="rgba(249, 221, 221, 1)"></circle><circle r="5" cx="387.27" cy="401.21" fill="rgba(249, 221, 221, 1)"></circle><circle r="5" cx="375.02" cy="536.88" fill="rgba(249, 221, 221, 1)"></circle><circle r="5" cx="359.38" cy="680.19" fill="rgba(249, 221, 221, 1)"></circle><circle r="5" cx="501.68" cy="341.6" fill="rgba(249, 221, 221, 1)"></circle><circle r="5" cx="539.01" cy="506.88" fill="rgba(249, 221, 221, 1)"></circle><circle r="5" cx="675.79" cy="395.46" fill="rgba(249, 221, 221, 1)"></circle><circle r="5" cx="663.15" cy="534.19" fill="rgba(249, 221, 221, 1)"></circle><circle r="5" cx="674.73" cy="701.87" fill="rgba(249, 221, 221, 1)"></circle><circle r="5" cx="814.96" cy="199.18" fill="rgba(249, 221, 221, 1)"></circle><circle r="5" cx="819.73" cy="338.37" fill="rgba(249, 221, 221, 1)"></circle><circle r="5" cx="789.41" cy="542.32" fill="rgba(249, 221, 221, 1)"></circle><circle r="5" cx="809.82" cy="676.16" fill="rgba(249, 221, 221, 1)"></circle><circle r="5" cx="975.25" cy="-45.56" fill="rgba(249, 221, 221, 1)"></circle><circle r="5" cx="949.6" cy="62.84" fill="rgba(249, 221, 221, 1)"></circle><circle r="5" cx="977.3" cy="210.88" fill="rgba(249, 221, 221, 1)"></circle><circle r="5" cx="953.86" cy="487.52" fill="rgba(249, 221, 221, 1)"></circle><circle r="5" cx="1000.75" cy="652.02" fill="rgba(249, 221, 221, 1)"></circle><circle r="5" cx="1118.56" cy="-41.17" fill="rgba(249, 221, 221, 1)"></circle><circle r="5" cx="1141.86" cy="86.59" fill="rgba(249, 221, 221, 1)"></circle><circle r="5" cx="1101.55" cy="211.02" fill="rgba(249, 221, 221, 1)"></circle><circle r="5" cx="1130.91" cy="397.42" fill="rgba(249, 221, 221, 1)"></circle><circle r="5" cx="1117.58" cy="554.8" fill="rgba(249, 221, 221, 1)"></circle><circle r="5" cx="1109.19" cy="681.78" fill="rgba(249, 221, 221, 1)"></circle><circle r="5" cx="1293.03" cy="41.47" fill="rgba(249, 221, 221, 1)"></circle><circle r="5" cx="1304.25" cy="261.43" fill="rgba(249, 221, 221, 1)"></circle><circle r="5" cx="1258.72" cy="554.9" fill="rgba(249, 221, 221, 1)"></circle><circle r="5" cx="1292.89" cy="695.6" fill="rgba(249, 221, 221, 1)"></circle><circle r="5" cx="1423.38" cy="-88.38" fill="rgba(249, 221, 221, 1)"></circle><circle r="5" cx="1401.34" cy="100.69" fill="rgba(249, 221, 221, 1)"></circle><circle r="5" cx="1388.58" cy="207.8" fill="rgba(249, 221, 221, 1)"></circle><circle r="5" cx="1449.9" cy="365.17" fill="rgba(249, 221, 221, 1)"></circle><circle r="5" cx="1411.54" cy="537.65" fill="rgba(249, 221, 221, 1)"></circle><circle r="5" cx="1599.98" cy="62.93" fill="rgba(249, 221, 221, 1)"></circle><circle r="5" cx="1554.48" cy="246.61" fill="rgba(249, 221, 221, 1)"></circle><circle r="5" cx="1595.08" cy="362.32" fill="rgba(249, 221, 221, 1)"></circle><circle r="5" cx="1547.34" cy="499.65" fill="rgba(249, 221, 221, 1)"></circle><circle r="5" cx="1603.13" cy="647.19" fill="rgba(249, 221, 221, 1)"></circle><path d="M71.32 699.67L71.32 699.67" stroke="hsl(346.4, 81.9%, 68.1%)" stroke-width="1.5"></path><path d="M71.32 699.67L-78.62 649.13" stroke="hsl(346.4, 81.9%, 68.1%)" stroke-width="1.5"></path><path d="M71.32 699.67L234.69 662.63" stroke="hsl(346.4, 81.9%, 68.1%)" stroke-width="1.5"></path><path d="M71.32 699.67L189.19 549.63" stroke="hsl(346.4, 81.9%, 68.1%)" stroke-width="1.5"></path><path d="M234.69 662.63L234.69 662.63" stroke="hsl(346.4, 81.9%, 68.1%)" stroke-width="1.5"></path><path d="M234.69 662.63L344.82 692.2" stroke="hsl(346.4, 81.9%, 68.1%)" stroke-width="1.5"></path><path d="M234.69 662.63L189.19 549.63" stroke="hsl(346.4, 81.9%, 68.1%)" stroke-width="1.5"></path><path d="M524.51 561.91L524.51 561.91" stroke="hsl(346.4, 81.9%, 68.1%)" stroke-width="1.5"></path><path d="M524.51 561.91L543.34 644.71" stroke="hsl(346.4, 81.9%, 68.1%)" stroke-width="1.5"></path><path d="M524.51 561.91L642.96 541.04" stroke="hsl(346.4, 81.9%, 68.1%)" stroke-width="1.5"></path><path d="M524.51 561.91L377.83 512.85" stroke="hsl(346.4, 81.9%, 68.1%)" stroke-width="1.5"></path><path d="M543.34 644.71L543.34 644.71" stroke="hsl(346.4, 81.9%, 68.1%)" stroke-width="1.5"></path><path d="M683.93 645.46L683.93 645.46" stroke="hsl(346.4, 81.9%, 68.1%)" stroke-width="1.5"></path><path d="M683.93 645.46L642.96 541.04" stroke="hsl(346.4, 81.9%, 68.1%)" stroke-width="1.5"></path><path d="M683.93 645.46L543.34 644.71" stroke="hsl(346.4, 81.9%, 68.1%)" stroke-width="1.5"></path><path d="M683.93 645.46L857.59 691.31" stroke="hsl(346.4, 81.9%, 68.1%)" stroke-width="1.5"></path><path d="M683.93 645.46L524.51 561.91" stroke="hsl(346.4, 81.9%, 68.1%)" stroke-width="1.5"></path><path d="M683.93 645.46L845.31 536.96" stroke="hsl(346.4, 81.9%, 68.1%)" stroke-width="1.5"></path><path d="M683.93 645.46L973.72 664.77" stroke="hsl(346.4, 81.9%, 68.1%)" stroke-width="1.5"></path><path d="M960.42 345.64L960.42 345.64" stroke="hsl(346.4, 81.9%, 68.1%)" stroke-width="1.5"></path><path d="M960.42 345.64L856.7 391.81" stroke="hsl(346.4, 81.9%, 68.1%)" stroke-width="1.5"></path><path d="M960.42 345.64L1120.16 385.45" stroke="hsl(346.4, 81.9%, 68.1%)" stroke-width="1.5"></path><path d="M960.42 345.64L1095.6 242.82" stroke="hsl(346.4, 81.9%, 68.1%)" stroke-width="1.5"></path><path d="M1143.11 81.39L1143.11 81.39" stroke="hsl(346.4, 81.9%, 68.1%)" stroke-width="1.5"></path><path d="M1143.11 81.39L1095.6 242.82" stroke="hsl(346.4, 81.9%, 68.1%)" stroke-width="1.5"></path><path d="M1143.11 81.39L1264.28 245.03" stroke="hsl(346.4, 81.9%, 68.1%)" stroke-width="1.5"></path><path d="M1143.11 81.39L1307.41 -56.18" stroke="hsl(346.4, 81.9%, 68.1%)" stroke-width="1.5"></path><path d="M1143.11 81.39L1399.84 81.34" stroke="hsl(346.4, 81.9%, 68.1%)" stroke-width="1.5"></path><path d="M1143.11 81.39L1416.99 201.23" stroke="hsl(346.4, 81.9%, 68.1%)" stroke-width="1.5"></path><path d="M1151.73 536.95L1151.73 536.95" stroke="hsl(346.4, 81.9%, 68.1%)" stroke-width="1.5"></path><path d="M1151.73 536.95L1274.69 555.02" stroke="hsl(346.4, 81.9%, 68.1%)" stroke-width="1.5"></path><path d="M1151.73 536.95L1120.16 385.45" stroke="hsl(346.4, 81.9%, 68.1%)" stroke-width="1.5"></path><path d="M1274.69 555.02L1274.69 555.02" stroke="hsl(346.4, 81.9%, 68.1%)" stroke-width="1.5"></path><path d="M1274.69 555.02L1277.99 692.09" stroke="hsl(346.4, 81.9%, 68.1%)" stroke-width="1.5"></path><path d="M1274.69 555.02L1160.41 710.02" stroke="hsl(346.4, 81.9%, 68.1%)" stroke-width="1.5"></path><path d="M1274.69 555.02L1271.91 351.65" stroke="hsl(346.4, 81.9%, 68.1%)" stroke-width="1.5"></path><path d="M1277.99 692.09L1277.99 692.09" stroke="hsl(346.4, 81.9%, 68.1%)" stroke-width="1.5"></path><path d="M1277.99 692.09L1160.41 710.02" stroke="hsl(346.4, 81.9%, 68.1%)" stroke-width="1.5"></path><path d="M1277.99 692.09L1448.84 661.45" stroke="hsl(346.4, 81.9%, 68.1%)" stroke-width="1.5"></path><path d="M-89.19 503.95L-89.19 503.95" stroke="hsl(346.4, 81.9%, 68.1%)" stroke-width="1.5"></path><path d="M-89.19 503.95L-78.62 649.13" stroke="hsl(346.4, 81.9%, 68.1%)" stroke-width="1.5"></path><path d="M-89.19 503.95L62.49 494.7" stroke="hsl(346.4, 81.9%, 68.1%)" stroke-width="1.5"></path><path d="M-78.62 649.13L-78.62 649.13" stroke="hsl(346.4, 81.9%, 68.1%)" stroke-width="1.5"></path><path d="M62.49 494.7L62.49 494.7" stroke="hsl(346.4, 81.9%, 68.1%)" stroke-width="1.5"></path><path d="M62.49 494.7L189.19 549.63" stroke="hsl(346.4, 81.9%, 68.1%)" stroke-width="1.5"></path><path d="M189.19 549.63L189.19 549.63" stroke="hsl(346.4, 81.9%, 68.1%)" stroke-width="1.5"></path><path d="M377.83 512.85L377.83 512.85" stroke="hsl(346.4, 81.9%, 68.1%)" stroke-width="1.5"></path><path d="M377.83 512.85L344.82 692.2" stroke="hsl(346.4, 81.9%, 68.1%)" stroke-width="1.5"></path><path d="M377.83 512.85L189.19 549.63" stroke="hsl(346.4, 81.9%, 68.1%)" stroke-width="1.5"></path><path d="M377.83 512.85L234.69 662.63" stroke="hsl(346.4, 81.9%, 68.1%)" stroke-width="1.5"></path><path d="M377.83 512.85L543.34 644.71" stroke="hsl(346.4, 81.9%, 68.1%)" stroke-width="1.5"></path><path d="M344.82 692.2L344.82 692.2" stroke="hsl(346.4, 81.9%, 68.1%)" stroke-width="1.5"></path><path d="M642.96 541.04L642.96 541.04" stroke="hsl(346.4, 81.9%, 68.1%)" stroke-width="1.5"></path><path d="M856.7 391.81L856.7 391.81" stroke="hsl(346.4, 81.9%, 68.1%)" stroke-width="1.5"></path><path d="M856.7 391.81L845.31 536.96" stroke="hsl(346.4, 81.9%, 68.1%)" stroke-width="1.5"></path><path d="M856.7 391.81L954.06 525.2" stroke="hsl(346.4, 81.9%, 68.1%)" stroke-width="1.5"></path><path d="M856.7 391.81L642.96 541.04" stroke="hsl(346.4, 81.9%, 68.1%)" stroke-width="1.5"></path><path d="M845.31 536.96L845.31 536.96" stroke="hsl(346.4, 81.9%, 68.1%)" stroke-width="1.5"></path><path d="M845.31 536.96L954.06 525.2" stroke="hsl(346.4, 81.9%, 68.1%)" stroke-width="1.5"></path><path d="M845.31 536.96L857.59 691.31" stroke="hsl(346.4, 81.9%, 68.1%)" stroke-width="1.5"></path><path d="M845.31 536.96L973.72 664.77" stroke="hsl(346.4, 81.9%, 68.1%)" stroke-width="1.5"></path><path d="M857.59 691.31L857.59 691.31" stroke="hsl(346.4, 81.9%, 68.1%)" stroke-width="1.5"></path><path d="M857.59 691.31L973.72 664.77" stroke="hsl(346.4, 81.9%, 68.1%)" stroke-width="1.5"></path><path d="M857.59 691.31L954.06 525.2" stroke="hsl(346.4, 81.9%, 68.1%)" stroke-width="1.5"></path><path d="M954.06 525.2L954.06 525.2" stroke="hsl(346.4, 81.9%, 68.1%)" stroke-width="1.5"></path><path d="M954.06 525.2L973.72 664.77" stroke="hsl(346.4, 81.9%, 68.1%)" stroke-width="1.5"></path><path d="M954.06 525.2L960.42 345.64" stroke="hsl(346.4, 81.9%, 68.1%)" stroke-width="1.5"></path><path d="M954.06 525.2L1151.73 536.95" stroke="hsl(346.4, 81.9%, 68.1%)" stroke-width="1.5"></path><path d="M973.72 664.77L973.72 664.77" stroke="hsl(346.4, 81.9%, 68.1%)" stroke-width="1.5"></path><path d="M1095.6 242.82L1095.6 242.82" stroke="hsl(346.4, 81.9%, 68.1%)" stroke-width="1.5"></path><path d="M1095.6 242.82L1120.16 385.45" stroke="hsl(346.4, 81.9%, 68.1%)" stroke-width="1.5"></path><path d="M1095.6 242.82L1264.28 245.03" stroke="hsl(346.4, 81.9%, 68.1%)" stroke-width="1.5"></path><path d="M1120.16 385.45L1120.16 385.45" stroke="hsl(346.4, 81.9%, 68.1%)" stroke-width="1.5"></path><path d="M1160.41 710.02L1160.41 710.02" stroke="hsl(346.4, 81.9%, 68.1%)" stroke-width="1.5"></path><path d="M1160.41 710.02L1151.73 536.95" stroke="hsl(346.4, 81.9%, 68.1%)" stroke-width="1.5"></path><path d="M1160.41 710.02L973.72 664.77" stroke="hsl(346.4, 81.9%, 68.1%)" stroke-width="1.5"></path><path d="M1307.41 -56.18L1307.41 -56.18" stroke="hsl(346.4, 81.9%, 68.1%)" stroke-width="1.5"></path><path d="M1307.41 -56.18L1392.17 -93.59" stroke="hsl(346.4, 81.9%, 68.1%)" stroke-width="1.5"></path><path d="M1307.41 -56.18L1399.84 81.34" stroke="hsl(346.4, 81.9%, 68.1%)" stroke-width="1.5"></path><path d="M1264.28 245.03L1264.28 245.03" stroke="hsl(346.4, 81.9%, 68.1%)" stroke-width="1.5"></path><path d="M1264.28 245.03L1271.91 351.65" stroke="hsl(346.4, 81.9%, 68.1%)" stroke-width="1.5"></path><path d="M1264.28 245.03L1416.99 201.23" stroke="hsl(346.4, 81.9%, 68.1%)" stroke-width="1.5"></path><path d="M1264.28 245.03L1120.16 385.45" stroke="hsl(346.4, 81.9%, 68.1%)" stroke-width="1.5"></path><path d="M1271.91 351.65L1271.91 351.65" stroke="hsl(346.4, 81.9%, 68.1%)" stroke-width="1.5"></path><path d="M1271.91 351.65L1422.79 382.01" stroke="hsl(346.4, 81.9%, 68.1%)" stroke-width="1.5"></path><path d="M1271.91 351.65L1120.16 385.45" stroke="hsl(346.4, 81.9%, 68.1%)" stroke-width="1.5"></path><path d="M1271.91 351.65L1095.6 242.82" stroke="hsl(346.4, 81.9%, 68.1%)" stroke-width="1.5"></path><path d="M1392.17 -93.59L1392.17 -93.59" stroke="hsl(346.4, 81.9%, 68.1%)" stroke-width="1.5"></path><path d="M1392.17 -93.59L1399.84 81.34" stroke="hsl(346.4, 81.9%, 68.1%)" stroke-width="1.5"></path><path d="M1399.84 81.34L1399.84 81.34" stroke="hsl(346.4, 81.9%, 68.1%)" stroke-width="1.5"></path><path d="M1399.84 81.34L1416.99 201.23" stroke="hsl(346.4, 81.9%, 68.1%)" stroke-width="1.5"></path><path d="M1399.84 81.34L1264.28 245.03" stroke="hsl(346.4, 81.9%, 68.1%)" stroke-width="1.5"></path><path d="M1399.84 81.34L1611.33 105.81" stroke="hsl(346.4, 81.9%, 68.1%)" stroke-width="1.5"></path><path d="M1416.99 201.23L1416.99 201.23" stroke="hsl(346.4, 81.9%, 68.1%)" stroke-width="1.5"></path><path d="M1416.99 201.23L1583.72 247.92" stroke="hsl(346.4, 81.9%, 68.1%)" stroke-width="1.5"></path><path d="M1422.79 382.01L1422.79 382.01" stroke="hsl(346.4, 81.9%, 68.1%)" stroke-width="1.5"></path><path d="M1422.79 382.01L1593.41 382.12" stroke="hsl(346.4, 81.9%, 68.1%)" stroke-width="1.5"></path><path d="M1448.84 661.45L1448.84 661.45" stroke="hsl(346.4, 81.9%, 68.1%)" stroke-width="1.5"></path><path d="M1448.84 661.45L1540.15 699.34" stroke="hsl(346.4, 81.9%, 68.1%)" stroke-width="1.5"></path><path d="M1448.84 661.45L1274.69 555.02" stroke="hsl(346.4, 81.9%, 68.1%)" stroke-width="1.5"></path><path d="M1448.84 661.45L1576.39 487.97" stroke="hsl(346.4, 81.9%, 68.1%)" stroke-width="1.5"></path><path d="M1448.84 661.45L1422.79 382.01" stroke="hsl(346.4, 81.9%, 68.1%)" stroke-width="1.5"></path><path d="M1448.84 661.45L1160.41 710.02" stroke="hsl(346.4, 81.9%, 68.1%)" stroke-width="1.5"></path><path d="M1593.42 -59.19L1593.42 -59.19" stroke="hsl(346.4, 81.9%, 68.1%)" stroke-width="1.5"></path><path d="M1593.42 -59.19L1611.33 105.81" stroke="hsl(346.4, 81.9%, 68.1%)" stroke-width="1.5"></path><path d="M1593.42 -59.19L1392.17 -93.59" stroke="hsl(346.4, 81.9%, 68.1%)" stroke-width="1.5"></path><path d="M1611.33 105.81L1611.33 105.81" stroke="hsl(346.4, 81.9%, 68.1%)" stroke-width="1.5"></path><path d="M1611.33 105.81L1583.72 247.92" stroke="hsl(346.4, 81.9%, 68.1%)" stroke-width="1.5"></path><path d="M1583.72 247.92L1583.72 247.92" stroke="hsl(346.4, 81.9%, 68.1%)" stroke-width="1.5"></path><path d="M1583.72 247.92L1593.41 382.12" stroke="hsl(346.4, 81.9%, 68.1%)" stroke-width="1.5"></path><path d="M1593.41 382.12L1593.41 382.12" stroke="hsl(346.4, 81.9%, 68.1%)" stroke-width="1.5"></path><path d="M1593.41 382.12L1576.39 487.97" stroke="hsl(346.4, 81.9%, 68.1%)" stroke-width="1.5"></path><path d="M1593.41 382.12L1416.99 201.23" stroke="hsl(346.4, 81.9%, 68.1%)" stroke-width="1.5"></path><path d="M1593.41 382.12L1611.33 105.81" stroke="hsl(346.4, 81.9%, 68.1%)" stroke-width="1.5"></path><path d="M1576.39 487.97L1576.39 487.97" stroke="hsl(346.4, 81.9%, 68.1%)" stroke-width="1.5"></path><path d="M1576.39 487.97L1422.79 382.01" stroke="hsl(346.4, 81.9%, 68.1%)" stroke-width="1.5"></path><path d="M1576.39 487.97L1540.15 699.34" stroke="hsl(346.4, 81.9%, 68.1%)" stroke-width="1.5"></path><path d="M1540.15 699.34L1540.15 699.34" stroke="hsl(346.4, 81.9%, 68.1%)" stroke-width="1.5"></path><circle r="25" cx="71.32" cy="699.67" fill="url(&quot;#SvgjsRadialGradient1011&quot;)"></circle><circle r="25" cx="234.69" cy="662.63" fill="url(&quot;#SvgjsRadialGradient1011&quot;)"></circle><circle r="25" cx="524.51" cy="561.91" fill="url(&quot;#SvgjsRadialGradient1011&quot;)"></circle><circle r="25" cx="543.34" cy="644.71" fill="url(&quot;#SvgjsRadialGradient1011&quot;)"></circle><circle r="25" cx="683.93" cy="645.46" fill="url(&quot;#SvgjsRadialGradient1011&quot;)"></circle><circle r="25" cx="960.42" cy="345.64" fill="url(&quot;#SvgjsRadialGradient1011&quot;)"></circle><circle r="25" cx="1143.11" cy="81.39" fill="url(&quot;#SvgjsRadialGradient1011&quot;)"></circle><circle r="25" cx="1151.73" cy="536.95" fill="url(&quot;#SvgjsRadialGradient1011&quot;)"></circle><circle r="25" cx="1274.69" cy="555.02" fill="url(&quot;#SvgjsRadialGradient1011&quot;)"></circle><circle r="25" cx="1277.99" cy="692.09" fill="url(&quot;#SvgjsRadialGradient1011&quot;)"></circle><circle r="5" cx="-89.19" cy="503.95" fill="#f491a7"></circle><circle r="5" cx="-78.62" cy="649.13" fill="#f491a7"></circle><circle r="5" cx="62.49" cy="494.7" fill="#f491a7"></circle><circle r="5" cx="189.19" cy="549.63" fill="#f491a7"></circle><circle r="5" cx="377.83" cy="512.85" fill="#f491a7"></circle><circle r="5" cx="344.82" cy="692.2" fill="#f491a7"></circle><circle r="5" cx="642.96" cy="541.04" fill="#f491a7"></circle><circle r="5" cx="856.7" cy="391.81" fill="#f491a7"></circle><circle r="5" cx="845.31" cy="536.96" fill="#f491a7"></circle><circle r="5" cx="857.59" cy="691.31" fill="#f491a7"></circle><circle r="5" cx="954.06" cy="525.2" fill="#f491a7"></circle><circle r="5" cx="973.72" cy="664.77" fill="#f491a7"></circle><circle r="5" cx="1095.6" cy="242.82" fill="#f491a7"></circle><circle r="5" cx="1120.16" cy="385.45" fill="#f491a7"></circle><circle r="5" cx="1160.41" cy="710.02" fill="#f491a7"></circle><circle r="5" cx="1307.41" cy="-56.18" fill="#f491a7"></circle><circle r="5" cx="1264.28" cy="245.03" fill="#f491a7"></circle><circle r="5" cx="1271.91" cy="351.65" fill="#f491a7"></circle><circle r="5" cx="1392.17" cy="-93.59" fill="#f491a7"></circle><circle r="5" cx="1399.84" cy="81.34" fill="#f491a7"></circle><circle r="5" cx="1416.99" cy="201.23" fill="#f491a7"></circle><circle r="5" cx="1422.79" cy="382.01" fill="#f491a7"></circle><circle r="5" cx="1448.84" cy="661.45" fill="#f491a7"></circle><circle r="5" cx="1593.42" cy="-59.19" fill="#f491a7"></circle><circle r="5" cx="1611.33" cy="105.81" fill="#f491a7"></circle><circle r="5" cx="1583.72" cy="247.92" fill="#f491a7"></circle><circle r="5" cx="1593.41" cy="382.12" fill="#f491a7"></circle><circle r="5" cx="1576.39" cy="487.97" fill="#f491a7"></circle><circle r="5" cx="1540.15" cy="699.34" fill="#f491a7"></circle></g><defs><mask id="SvgjsMask1010"><rect width="1440" height="560" fill="#ffffff"></rect></mask><radialGradient id="SvgjsRadialGradient1011"><stop stop-color="#ffffff" offset="0.1"></stop><stop stop-color="rgba(233, 34, 79, 1)" offset="0.2"></stop><stop stop-color="rgba(233, 34, 79, 0)" offset="1"></stop></radialGradient></defs></svg>